<?xml version="1.0" encoding="UTF-8" standalone="no"?>
<svg
   xmlns:dc="http://purl.org/dc/elements/1.1/"
   xmlns:cc="http://creativecommons.org/ns#"
   xmlns:rdf="http://www.w3.org/1999/02/22-rdf-syntax-ns#"
   xmlns:svg="http://www.w3.org/2000/svg"
   xmlns="http://www.w3.org/2000/svg"
   version="1.1"
   id="Layer_1"
   x="0px"
   y="0px"
   viewBox="0 0 115 115"
   enable-background="new 0 0 145 135"
   xml:space="preserve"
   width="115"
   height="115"><metadata
   id="metadata15"><rdf:RDF><cc:Work
       rdf:about=""><dc:format>image/svg+xml</dc:format><dc:type
         rdf:resource="http://purl.org/dc/dcmitype/StillImage" /><dc:title></dc:title></cc:Work></rdf:RDF></metadata><defs
   id="defs13" />
<path
   fill="#17b2e7"
   d="m 113.96351,58.200875 c -0.364,1.182 -1.163,2.047 -2.018,2.898 -5.73,5.71 -11.442,11.439 -17.161001,17.162 -2.06,2.063 -4.262,2.056 -6.33,-0.014 -5.901,-5.906 -11.803,-11.812 -17.702,-17.719 -2.009,-2.012 -2.008,-4.209 0.006,-6.226 5.933,-5.941 11.866,-11.881 17.801,-17.819 1.931,-1.933 4.199,-1.933 6.13,-0.002 5.754001,5.754 11.499001,11.517 17.262001,17.261 0.856,0.853 1.651,1.722 2.012,2.905 0,0.519 0,1.036 0,1.554 z"
   id="path2" />
<path
   fill="#17b2e7"
   d="m 57.082509,113.52787 c -1.176,-0.374 -2.029,-1.188 -2.877,-2.042 -5.705,-5.734 -11.429,-11.451 -17.146,-17.174995 -2.046,-2.05 -2.048,-4.233 -0.006,-6.278 5.917,-5.922 11.833,-11.843 17.753,-17.765 1.968,-1.968 4.221,-1.976 6.178,-0.017 5.918,5.92 11.835,11.844 17.751,17.767 2.032,2.036 2.038,4.265 0.014,6.291 -5.766,5.771995 -11.542,11.537995 -17.295,17.322995 -0.824,0.826 -1.671,1.572 -2.818,1.896 -0.519,0 -1.036,0 -1.554,0 z"
   id="path4" />
<path
   fill="#17b2e7"
   d="m 36.316509,43.233875 c 0,-6.584 0.059,-13.168 -0.038,-19.752 -0.028,-1.906 0.428,-3.395 1.883,-4.651 1.171,-1.012 2.208,-2.179 3.305,-3.277 4.337,-4.341 8.675,-8.6839998 13.014,-13.0239998 2.041,-2.04099999 4.241,-2.03899999 6.28,10e-4 5.902,5.904 11.803,11.8089998 17.704,17.7139998 2.027,2.028 2.025,4.259 -0.002,6.289 -6.979,6.987 -13.959,13.974 -20.94,20.96 -6.164,6.17 -12.327,12.341 -18.492,18.509 -1.142,1.144 -2.154,0.877 -2.569,-0.707 -0.128,-0.489 -0.138,-1.021 -0.139,-1.532 -0.009,-6.844 -0.006,-13.687 -0.006,-20.53 z"
   id="path6" />
<path
   fill="#17b2e7"
   d="m 22.203509,57.500875 c 0,6.043 0.008,12.086 -0.012,18.129 -0.002,0.574 -0.094,1.182 -0.299,1.713 -0.403,1.05 -1.16,1.18 -1.952,0.39 -2.779,-2.774 -5.55,-5.558 -8.324,-8.335 -3.2070001,-3.212 -6.4129999,-6.423 -9.6179999,-9.637 -1.32700004,-1.328 -1.33200004,-3.174 -0.011,-4.511 5.9009998,-5.969 11.8039999,-11.938 17.7089999,-17.904 0.39,-0.395 0.758,-0.93 1.421,-0.679 0.634,0.239 0.885,0.811 0.975,1.446 0.057,0.393 0.101,0.792 0.101,1.188 0.006,6.067 0.004,12.134 0.004,18.201 0.003,-10e-4 0.005,-10e-4 0.006,-10e-4 z"
   id="path8" />
</svg>
